# xmcd
#
# Track frame offsets:
#	150
#	15334
#	29944
#	39711
#	50872
#	65217
#	81867
#	93157
#	104455
#	113312
#	124606
#	134846
#
# Disc length: 1984 seconds
#
# Revision: 0
# Processed by: cddbd v1.5.1PL2 Copyright (c) Steve Scherf et al.
# Submitted via: EasyCDDAExtractor 8.2.2.1
#
DISCID=a907be0c
DTITLE=Johnny Rodriguez - Desperado A Decade of Hits
DYEAR=1900
DGENRE=Country
TTITLE0=Desperado
TTITLE1=Run For The Border
TTITLE2=Ridin' My thumb To Mexico
TTITLE3=Pass Me By
TTITLE4=What's New In Old Mexico
TTITLE5=She's Too Pretty to Cry
TTITLE6=You Always Come Back
TTITLE7=I Just Can't Get Her Out Of My Mind
TTITLE8=(Just Get Up and ) Close The Door
TTITLE9=I Wonder If I ever Said Goodbye
TTITLE10=That's The Way Love Goes
TTITLE11=The Bitter Inn
EXTD=CD includes DVD Music Video, 'Run For The Border' Johnny Rodriguez
EXTT0=
EXTT1=
EXTT2=
EXTT3=
EXTT4=
EXTT5=
EXTT6=
EXTT7=
EXTT8=
EXTT9=
EXTT10=
EXTT11=
PLAYORDER=
